<?xml version="1.0" encoding="UTF-8"?><svg id="Layer_2" xmlns="http://www.w3.org/2000/svg" xmlns:xlink="http://www.w3.org/1999/xlink" viewBox="0 0 256 256"><defs><style>.cls-1{fill:#fff;}.cls-2{fill:#8c8c8c;}.cls-3{fill:#282828;}.cls-4{fill:url(#linear-gradient);}.cls-5{fill:#6207ae;}</style><linearGradient id="linear-gradient" x1="52.62" y1="-2.57" x2="203.38" y2="258.57" gradientUnits="userSpaceOnUse"><stop offset="0" stop-color="#fff"/><stop offset="1" stop-color="#a6a6a6"/></linearGradient></defs><g id="Layer_2-2"><rect class="cls-1" y="0" width="256" height="256" rx="65.83" ry="65.83"/><path class="cls-4" d="m190.17,18c26.38,0,47.83,21.46,47.83,47.83v124.33c0,26.38-21.46,47.83-47.83,47.83h-124.33c-26.38,0-47.83-21.46-47.83-47.83v-124.33c0-26.38,21.46-47.83,47.83-47.83h124.33m0-18h-124.33C29.47,0,0,29.47,0,65.83v124.33C0,226.53,29.47,256,65.83,256h124.33c36.36,0,65.83-29.47,65.83-65.83v-124.33C256,29.47,226.53,0,190.17,0h0Z"/></g><g id="Layer_3"><rect class="cls-2" x="74.17" y="137.63" width="63.6" height="22.67" transform="translate(-74.3 118.56) rotate(-45)"/><rect class="cls-2" x="76.17" y="139.63" width="59.6" height="18.67" transform="translate(-74.3 118.56) rotate(-45)"/><path class="cls-5" d="m59.43,216.12c-3.28,0-6.36-1.28-8.68-3.6l-8.34-8.34c-2.32-2.32-3.6-5.4-3.6-8.68s1.28-6.36,3.6-8.68l35.85-35.85c2.32-2.32,5.4-3.59,8.68-3.59s6.36,1.28,8.68,3.6l8.34,8.34c2.32,2.32,3.6,5.4,3.6,8.68s-1.28,6.36-3.6,8.68l-35.85,35.85c-2.32,2.32-5.4,3.6-8.68,3.6Z"/><rect class="cls-5" x="38.56" y="166.58" width="69.25" height="30.35" rx="9.27" ry="9.27" transform="translate(-107.08 104.98) rotate(-45)"/><path class="cls-3" d="m158.82,160.7c-34.44,0-62.46-28.02-62.46-62.46s28.02-62.46,62.46-62.46,62.46,28.02,62.46,62.46-28.02,62.46-62.46,62.46Zm0-95.25c-18.08,0-32.78,14.71-32.78,32.78s14.71,32.78,32.78,32.78,32.78-14.71,32.78-32.78-14.71-32.78-32.78-32.78Z"/><path class="cls-3" d="m158.82,158.7c-33.34,0-60.46-27.12-60.46-60.46s27.12-60.46,60.46-60.46,60.46,27.12,60.46,60.46-27.12,60.46-60.46,60.46Zm0-95.25c-19.18,0-34.78,15.6-34.78,34.78s15.6,34.78,34.78,34.78,34.78-15.6,34.78-34.78-15.6-34.78-34.78-34.78Z"/></g></svg>