<?xml version="1.0" encoding="UTF-8"?><svg xmlns="http://www.w3.org/2000/svg" viewBox="0 0 1080 1080"><defs><style>.cls-1{fill:#fff;}</style></defs><g id="Layer_4"><g id="Layer_3"><rect class="cls-1" width="1080" height="1080" rx="289.33" ry="289.33"/></g></g><g id="Layer_1"><path d="m669.44,146.12c-148.25,0-268.44,120.18-268.44,268.44,0,58.83,18.94,113.22,51.03,157.45-.11.96-.69,1.86-1.73,2.88-7.09,6.99-13.93,14.24-21.15,21.08-1.39,1.31-4.12,1.76-6.2,1.67-5.41-.22-10.99-2.08-16.13-1.16-4.7.85-9.71,3.64-13.17,7.02-19.07,18.63-37.66,37.74-56.49,56.61-46.41,46.48-92.87,92.92-139.31,139.37-6.81,6.82-13.34,13.94-20.48,20.39-9.14,8.25-10.99,18.2-7.76,29.35,7.12,24.55,23.18,41.88,45.36,53.54,6.5,3.42,14.05,5.22,21.33,6.7,7.94,1.6,14.62-1.72,20.32-7.49,14.43-14.64,29.05-29.09,43.59-43.63,56.66-56.68,113.12-113.55,170.15-169.86,10.26-10.14,13.97-20.51,9.96-34.11-.46-1.55.39-4.16,1.57-5.39,6.63-6.98,13.47-13.78,20.47-20.4.79-.75,3.07-.92,4.26-.42-.01-.08-.03-.17-.04-.25,45.17,34.53,101.62,55.06,162.87,55.06,148.25,0,268.44-120.18,268.44-268.44s-120.18-268.44-268.44-268.44Zm0,450.33c-100.46,0-181.9-81.44-181.9-181.9s81.44-181.9,181.9-181.9,181.9,81.44,181.9,181.9-81.44,181.9-181.9,181.9Z"/></g></svg>